# xmcd
#
# Track frame offsets:
#	150
#	18105
#	46253
#	60498
#	93238
#	117150
#	148008
#	168773
#	184111
#
# Disc length: 2629 seconds
#
# Revision: 0
# Processed by: cddbd v1.5.2PL0 Copyright (c) Steve Scherf et al.
# Submitted via: SynApp - FreeCDDB Version: 2.5
#
DISCID=680a4309
DTITLE=Various Artist - Rattlesnake Guittar - [CD1]
DYEAR=1997
DGENRE=Blues
TTITLE0=Black Magic Woman
TTITLE1=Love That Burns
TTITLE2=Stop Messin' 'Round
TTITLE3=Looking For Somebody
TTITLE4=Crying Won't Bring You Back
TTITLE5=Leaving Town Blues
TTITLE6=If You Be My Baby
TTITLE7=The Supernatural
TTITLE8=Man Of The World
EXTD=
EXTT0=
EXTT1=
EXTT2=
EXTT3=
EXTT4=
EXTT5=
EXTT6=
EXTT7=
EXTT8=
PLAYORDER=
